<svg preserveAspectRatio="xMidYMid meet" data-bbox="0 6.6 1267.1 263.7" viewBox="0 6.6 300 263.7" xmlns="http://www.w3.org/2000/svg" data-type="color" role="presentation" aria-hidden="true" aria-label="">
    <defs>
        <style>
            #comp-kbgakxea_r_comp-lticcg7a svg [data-color="1"] {fill: #00D774;}
            #comp-kbgakxea_r_comp-lticcg7a svg [data-color="2"] {fill: #FFFFFF;}
        </style>
    </defs>
    <g>
        <path fill="#00d774" d="M105.5 187.3v4.6-4.6z" data-color="1"></path>
        <path d="M105.5 165.3v26.5-26.5c-14.5 0-27.7-5.8-37.2-15.2 9.6 9.4 22.7 15.2 37.2 15.2z" fill="#00d774" data-color="1"></path>
        <path d="M105.5 6.6C47.2 6.6 0 53.8 0 112.1c0 29.5 12.1 56.1 31.5 75.2h.1l73.9 83 74-83c19.5-19.1 31.5-45.8 31.5-75.2.1-58.3-47.2-105.5-105.5-105.5zm37.3 143.5-33.3 37.3-4 4.5v-26.6c-14.5 0-27.7-5.8-37.2-15.3-9.8-9.6-15.9-23.1-15.9-37.9 0-29.4 23.8-53.2 53.2-53.2 29.4 0 53.2 23.8 53.2 53.2-.1 14.9-6.2 28.3-16 38z" fill="#00d774" data-color="1"></path>
    </g>
</svg>
